<svg width="1065" height="833" viewBox="0 0 1065 833" fill="none" xmlns="http://www.w3.org/2000/svg">
<path d="M400.044 832.898C379.374 827.788 359.534 822.898 339.714 817.988C337.664 817.478 335.664 816.728 333.644 816.108C293.154 803.798 292.644 803.588 307.984 762.808C362.654 617.908 427.834 477.648 495.984 338.728C531.794 265.728 567.804 192.868 601.874 119.088C627.374 63.8775 669.594 28.1475 723.874 4.46754C729.514 2.01754 735.984 -2.89246 741.544 2.27754C747.544 7.81754 741.254 14.3475 739.544 19.8875C678.654 214.888 604.404 404.768 519.344 590.478C484.634 666.238 449.344 741.738 414.124 817.278C411.034 823.878 409.614 832.818 400.044 832.898Z" fill="#AF98F6"/>
<path d="M748.424 144.548C783.634 165.068 815.904 190.008 848.584 214.248C917.844 265.628 981.024 324.248 1046.05 380.688C1058.05 391.118 1062.41 402.548 1063.63 418.788C1065.93 449.068 1057.7 470.728 1034.29 491.998C998.364 524.658 968.294 563.718 933.774 597.998C889.774 641.698 840.774 678.378 777.674 690.658C774.224 691.328 770.814 692.318 767.334 692.658C743.734 695.088 741.334 691.658 747.424 668.758C762.784 610.888 799.074 565.918 836.974 521.878C858.154 497.258 879.134 472.458 900.704 448.188C911.144 436.428 909.544 428.128 899.424 415.868C842.734 347.228 787.164 277.588 757.344 191.838C752.344 177.428 748.344 162.648 743.934 148.038L748.424 144.548Z" fill="#AF98F6"/>
<path d="M315.58 142C280.37 162.52 248.1 187.46 215.42 211.699C146.161 263.079 82.9808 321.699 17.951 378.138C5.95107 388.568 1.59101 399.998 0.371009 416.238C-1.92898 446.517 6.30108 468.177 29.711 489.447C65.6409 522.107 95.7108 561.167 130.231 595.446C174.231 639.146 223.23 675.826 286.33 688.105C289.78 688.775 293.19 689.765 296.67 690.105C320.27 692.535 322.67 689.106 316.58 666.206C301.22 608.336 264.93 563.367 227.03 519.327C205.85 494.707 184.871 469.907 163.301 445.638C152.861 433.878 154.461 425.578 164.581 413.318C221.27 344.678 276.84 275.039 306.66 189.29C311.66 174.88 315.66 160.1 320.07 145.49L315.58 142Z" fill="#AF98F6"/>
</svg>
