<svg xmlns="http://www.w3.org/2000/svg" viewBox="0 0 1122.52 1080"><defs><style>.cls-6{fill:#af98f6;}</style></defs><title>Ativo 1</title><g id="Camada_2" data-name="Camada 2"><g id="Camada_1-2" data-name="Camada 1"><path class="cls-1" d="M.43,438V161.81c7.84-2.83,3.16-5.66,0-8.5V115.07c4.53-2.83,5.2-5.66,0-8.49,0-30.46.79-60.94-.38-91.34C-.44,2.48,2.62,0,15.3,0Q405.12.71,795,.35c104.81,0,209.61.18,314.41-.28,10.63,0,13.27,2.38,13,13-.77,35.4-.29,70.81-.29,106.22-20.91,15.55-20.91,18.44,0,34q0,454.65.41,909.29c0,14.55-2.86,17.42-17.41,17.4q-543.84-.78-1087.69,0C2.87,1080,0,1077.15,0,1062.6.65,881.31.43,700,.43,518.73q6.18-4.26,0-8.5V472C17,456.61,17,453.36.43,438Z" transform="translate(0 0)"/><path class="cls-2" d="M1122.11,153.31c-13.06,1-21.87-1.94-21.44-18.05.42-15.59,10-16.39,21.44-15.94Z" transform="translate(0 0)"/><path class="cls-3" d="M.43,438c14.2-2.05,17.3,5.07,17.37,18,.07,13.29-5.38,17.37-17.37,16v-4.25c7.51-7.08,8.82-14.16,0-21.25Z" transform="translate(0 0)"/><path class="cls-1" d="M.43,446.49c5.54.28,11.88-.49,12.37,7.68.52,8.61-4,12.92-12.37,13.57Z" transform="translate(0 0)"/><path class="cls-3" d="M.43,153.31c5.9,1.44,17.34-3.58,15.34,7.68-1.72,9.71-9.93,2.23-15.34.82Z" transform="translate(0 0)"/><path class="cls-4" d="M.43,106.58c5.26,2,13.9-8.58,15.42,1.17,1.69,10.82-9.55,5.94-15.42,7.32Z" transform="translate(0 0)"/><path class="cls-5" d="M.43,510.23c4.93,1,11.21-2.51,14.76,4.25-3.55,6.75-9.83,3.19-14.76,4.25Z" transform="translate(0 0)"/><path class="cls-6" d="M433.7,960.42c-20.67-5.11-40.51-10-60.33-14.91-2.05-.51-4.05-1.26-6.07-1.88-40.49-12.31-41-12.52-25.66-53.3,54.67-144.9,119.85-285.16,188-424.08,35.81-73,71.82-145.86,105.89-219.64,25.5-55.21,67.72-90.94,122-114.62,5.64-2.45,12.11-7.36,17.67-2.19,6,5.54-.29,12.07-2,17.61C712.31,342.41,638.06,532.29,553,718c-34.71,75.76-70,151.26-105.22,226.8C444.69,951.4,443.27,960.34,433.7,960.42Z" transform="translate(0 0)"/><path class="cls-6" d="M29.75,505.65c38.36-39.56,77.46-78.31,118-115.64C202,340.1,262.88,301.31,331.7,275c3.83-1.46,8-1.93,14.11-3.34-1.93,22-11.54,39.91-19.62,58C295.64,398,251.11,457.39,205,515.6c-22.19,28-23.27,28,.28,55.16,26.36,30.4,56.73,57,80.48,90,27.42,38.1,44.08,80.1,53.76,125.48,2.85,13.35-2.39,17-15.46,17.39C266.53,805.59,223,776.4,182.64,740.77c-54.75-48.33-98.35-107.39-150.55-158.2-5.82-5.67-6.5-12.05-6.43-19.27.17-17.69.17-35.39.24-53.08C26,507.67,28.59,507.28,29.75,505.65Z" transform="translate(0 0)"/><path class="cls-6" d="M782.08,272.07c35.21,20.52,67.48,45.46,100.16,69.7,69.26,51.38,132.44,110,197.47,166.44,12,10.43,16.36,21.86,17.58,38.1,2.3,30.28-5.93,51.94-29.34,73.21-35.93,32.66-66,71.72-100.52,106-44,43.7-93,80.38-156.1,92.66-3.45.67-6.86,1.66-10.34,2-23.6,2.43-26-1-19.91-23.9,15.36-57.87,51.65-102.84,89.55-146.88,21.18-24.62,42.16-49.42,63.73-73.69,10.44-11.76,8.84-20.06-1.28-32.32C876.39,474.75,820.82,405.11,791,319.36c-5-14.41-9-29.19-13.41-43.8Z" transform="translate(0 0)"/><path class="cls-7" d="M29.75,505.65l-3.85,4.57c-7.75-9.36-3.19-19.74-3.78-31.82C29.62,487.82,21.59,498.76,29.75,505.65Z" transform="translate(0 0)"/></g></g></svg>