<svg width="21" height="17" viewBox="0 0 21 17" fill="none" xmlns="http://www.w3.org/2000/svg">
<path d="M1.96875 0.625C0.881836 0.625 0 1.50684 0 2.59375C0 3.21309 0.291211 3.79551 0.7875 4.16875L9.7125 10.8625C10.1801 11.2111 10.8199 11.2111 11.2875 10.8625L20.2125 4.16875C20.7088 3.79551 21 3.21309 21 2.59375C21 1.50684 20.1182 0.625 19.0312 0.625H1.96875ZM0 5.21875V13.75C0 15.1979 1.17715 16.375 2.625 16.375H18.375C19.8229 16.375 21 15.1979 21 13.75V5.21875L12.075 11.9125C11.1398 12.6139 9.86016 12.6139 8.925 11.9125L0 5.21875Z" fill="white"/>
</svg>
