<svg width="20" height="21" viewBox="0 0 20 21" fill="none" xmlns="http://www.w3.org/2000/svg">
<g clip-path="url(#clip0_14_21)">
<path d="M6.68952 16.2996C6.68952 16.3816 6.59677 16.4473 6.47984 16.4473C6.34677 16.4596 6.25403 16.3939 6.25403 16.2996C6.25403 16.2176 6.34677 16.152 6.46371 16.152C6.58468 16.1396 6.68952 16.2053 6.68952 16.2996ZM5.43548 16.115C5.40726 16.1971 5.4879 16.2914 5.60887 16.316C5.71371 16.357 5.83468 16.316 5.85887 16.234C5.88306 16.152 5.80645 16.0576 5.68548 16.0207C5.58065 15.992 5.46371 16.033 5.43548 16.115ZM7.21774 16.0453C7.10081 16.074 7.02016 16.152 7.03226 16.2463C7.04435 16.3283 7.14919 16.3816 7.27016 16.3529C7.3871 16.3242 7.46774 16.2463 7.45564 16.1643C7.44355 16.0863 7.33468 16.033 7.21774 16.0453ZM9.87097 0.328125C4.27823 0.328125 0 4.64707 0 10.3359C0 14.8846 2.81452 18.777 6.83468 20.1469C7.35081 20.2412 7.53226 19.9172 7.53226 19.6506C7.53226 19.3963 7.52016 17.9936 7.52016 17.1322C7.52016 17.1322 4.69758 17.7475 4.10484 15.91C4.10484 15.91 3.64516 14.7164 2.98387 14.4088C2.98387 14.4088 2.06048 13.7648 3.04839 13.7771C3.04839 13.7771 4.05242 13.8592 4.60484 14.8354C5.4879 16.4186 6.96774 15.9633 7.54435 15.6926C7.6371 15.0363 7.89919 14.5811 8.18952 14.3104C5.93548 14.0561 3.66129 13.7238 3.66129 9.77812C3.66129 8.6502 3.96774 8.08418 4.6129 7.3623C4.50806 7.0957 4.16532 5.99648 4.71774 4.57734C5.56048 4.31074 7.5 5.68477 7.5 5.68477C8.30645 5.45508 9.17339 5.33613 10.0323 5.33613C10.8911 5.33613 11.7581 5.45508 12.5645 5.68477C12.5645 5.68477 14.504 4.30664 15.3468 4.57734C15.8992 6.00059 15.5565 7.0957 15.4516 7.3623C16.0968 8.08828 16.4919 8.6543 16.4919 9.77812C16.4919 13.7361 14.1169 14.052 11.8629 14.3104C12.2339 14.6344 12.5484 15.2496 12.5484 16.2135C12.5484 17.5957 12.5363 19.3061 12.5363 19.6424C12.5363 19.909 12.7218 20.233 13.2339 20.1387C17.2661 18.777 20 14.8846 20 10.3359C20 4.64707 15.4637 0.328125 9.87097 0.328125ZM3.91935 14.4744C3.86694 14.5154 3.87903 14.6098 3.94758 14.6877C4.0121 14.7533 4.10484 14.782 4.15726 14.7287C4.20968 14.6877 4.19758 14.5934 4.12903 14.5154C4.06452 14.4498 3.97177 14.4211 3.91935 14.4744ZM3.48387 14.1422C3.45565 14.1955 3.49597 14.2611 3.57661 14.3021C3.64113 14.3432 3.72177 14.3309 3.75 14.2734C3.77823 14.2201 3.7379 14.1545 3.65726 14.1135C3.57661 14.0889 3.5121 14.1012 3.48387 14.1422ZM4.79032 15.6023C4.72581 15.6557 4.75 15.7787 4.84274 15.8566C4.93548 15.951 5.05242 15.9633 5.10484 15.8977C5.15726 15.8443 5.13306 15.7213 5.05242 15.6434C4.96371 15.549 4.84274 15.5367 4.79032 15.6023ZM4.33065 14.9994C4.26613 15.0404 4.26613 15.1471 4.33065 15.2414C4.39516 15.3357 4.50403 15.3768 4.55645 15.3357C4.62097 15.2824 4.62097 15.1758 4.55645 15.0814C4.5 14.9871 4.39516 14.9461 4.33065 14.9994Z" fill="white"/>
</g>
<defs>
<clipPath id="clip0_14_21">
<rect width="20" height="21" fill="white"/>
</clipPath>
</defs>
</svg>
