<svg width="18" height="21" viewBox="0 0 18 21" fill="none" xmlns="http://www.w3.org/2000/svg">
<path d="M4.02911 18.375H0.297321V6.10727H4.02911V18.375ZM2.16121 4.43384C0.967902 4.43384 0 3.42485 0 2.20669C8.54116e-09 1.62156 0.227698 1.0604 0.633002 0.646648C1.03831 0.232899 1.58802 0.000457764 2.16121 0.000457764C2.73439 0.000457764 3.2841 0.232899 3.68941 0.646648C4.09471 1.0604 4.32241 1.62156 4.32241 2.20669C4.32241 3.42485 3.35411 4.43384 2.16121 4.43384ZM17.996 18.375H14.2722V12.4032C14.2722 10.9799 14.2441 9.15474 12.332 9.15474C10.3918 9.15474 10.0945 10.701 10.0945 12.3006V18.375H6.3667V6.10727H9.9458V7.78071H9.99804C10.4963 6.81684 11.7133 5.79966 13.5289 5.79966C17.3057 5.79966 18 8.33852 18 11.6362V18.375H17.996Z" fill="white"/>
</svg>
