<svg width="128" height="128" viewBox="0 0 128 128" fill="none" xmlns="http://www.w3.org/2000/svg">
<path d="M27.613 116.706L19.516 25.8929H108.483L100.379 116.691L63.945 126.793L27.613 116.706V116.706Z" fill="#1572B6"/>
<path d="M64.001 119.072L93.44 110.91L100.366 33.319H64.001V119.072Z" fill="#33A9DC"/>
<path d="M64 66.22H78.738L79.757 54.815H64V43.677H91.929L91.662 46.665L88.925 77.357H64V66.22Z" fill="white"/>
<path d="M64.067 95.146L64.018 95.16L51.614 91.81L50.82 82.927H39.641L41.202 100.415L64.016 106.748L64.068 106.733V95.146H64.067Z" fill="#EBEBEB"/>
<path d="M77.792 76.886L76.45 91.802L64.028 95.155V106.743L86.861 100.415L87.029 98.533L88.967 76.886H77.792Z" fill="white"/>
<path d="M64.039 43.677V54.814H37.136L36.912 52.311L36.405 46.665L36.138 43.677H64.039ZM64 66.221V77.359H51.753L51.53 74.856L51.022 69.209L50.755 66.221H64Z" fill="#EBEBEB"/>
<path d="M54.129 20.28C51.8757 20.28 50.1557 19.6533 48.969 18.4C47.7957 17.1467 47.209 15.3667 47.209 13.06C47.209 11.9133 47.389 10.8933 47.749 10C48.109 9.09333 48.6023 8.33333 49.229 7.72C49.8557 7.09333 50.6023 6.62 51.469 6.3C52.3357 5.98 53.2757 5.82 54.289 5.82C54.8757 5.82 55.409 5.86667 55.889 5.96C56.369 6.04 56.789 6.14 57.149 6.26C57.509 6.36667 57.809 6.48 58.049 6.6C58.289 6.72 58.4623 6.81333 58.569 6.88L57.669 9.4C57.2423 9.17333 56.7423 8.98 56.169 8.82C55.609 8.66 54.969 8.58 54.249 8.58C53.769 8.58 53.2957 8.66 52.829 8.82C52.3757 8.98 51.969 9.24 51.609 9.6C51.2623 9.94667 50.9823 10.4 50.769 10.96C50.5557 11.52 50.449 12.2 50.449 13C50.449 13.64 50.5157 14.24 50.649 14.8C50.7957 15.3467 51.0223 15.82 51.329 16.22C51.649 16.62 52.0623 16.94 52.569 17.18C53.0757 17.4067 53.689 17.52 54.409 17.52C54.8623 17.52 55.269 17.4933 55.629 17.44C55.989 17.3867 56.309 17.3267 56.589 17.26C56.869 17.18 57.1157 17.0933 57.329 17C57.5423 16.9067 57.7357 16.82 57.909 16.74L58.769 19.24C58.329 19.5067 57.709 19.7467 56.909 19.96C56.109 20.1733 55.1823 20.28 54.129 20.28ZM64.8898 17.62C65.3298 17.62 65.6898 17.5867 65.9698 17.52C66.2631 17.44 66.4964 17.34 66.6698 17.22C66.8431 17.0867 66.9631 16.9333 67.0298 16.76C67.0964 16.5867 67.1298 16.3933 67.1298 16.18C67.1298 15.7267 66.9164 15.3533 66.4898 15.06C66.0631 14.7533 65.3298 14.4267 64.2898 14.08C63.8364 13.92 63.3831 13.74 62.9298 13.54C62.4764 13.3267 62.0698 13.0667 61.7098 12.76C61.3498 12.44 61.0564 12.06 60.8298 11.62C60.6031 11.1667 60.4898 10.62 60.4898 9.98C60.4898 9.34 60.6098 8.76667 60.8498 8.26C61.0898 7.74 61.4298 7.3 61.8698 6.94C62.3098 6.58 62.8431 6.30667 63.4698 6.12C64.0964 5.92 64.8031 5.82 65.5898 5.82C66.5231 5.82 67.3298 5.92 68.0098 6.12C68.6898 6.32 69.2498 6.54 69.6898 6.78L68.7898 9.24C68.4031 9.04 67.9698 8.86667 67.4898 8.72C67.0231 8.56 66.4564 8.48 65.7898 8.48C65.0431 8.48 64.5031 8.58667 64.1698 8.8C63.8498 9 63.6898 9.31333 63.6898 9.74C63.6898 9.99333 63.7498 10.2067 63.8698 10.38C63.9898 10.5533 64.1564 10.7133 64.3698 10.86C64.5964 10.9933 64.8498 11.12 65.1298 11.24C65.4231 11.3467 65.7431 11.46 66.0898 11.58C66.8098 11.8467 67.4364 12.1133 67.9698 12.38C68.5031 12.6333 68.9431 12.9333 69.2898 13.28C69.6498 13.6267 69.9164 14.0333 70.0898 14.5C70.2631 14.9667 70.3498 15.5333 70.3498 16.2C70.3498 17.4933 69.8964 18.5 68.9898 19.22C68.0831 19.9267 66.7164 20.28 64.8898 20.28C64.2764 20.28 63.7231 20.24 63.2298 20.16C62.7364 20.0933 62.2964 20.0067 61.9098 19.9C61.5364 19.7933 61.2098 19.68 60.9298 19.56C60.6631 19.44 60.4364 19.3267 60.2498 19.22L61.1298 16.74C61.5431 16.9667 62.0498 17.1733 62.6498 17.36C63.2631 17.5333 64.0098 17.62 64.8898 17.62ZM76.5304 17.62C76.9704 17.62 77.3304 17.5867 77.6104 17.52C77.9037 17.44 78.1371 17.34 78.3104 17.22C78.4837 17.0867 78.6037 16.9333 78.6704 16.76C78.7371 16.5867 78.7704 16.3933 78.7704 16.18C78.7704 15.7267 78.5571 15.3533 78.1304 15.06C77.7037 14.7533 76.9704 14.4267 75.9304 14.08C75.4771 13.92 75.0237 13.74 74.5704 13.54C74.1171 13.3267 73.7104 13.0667 73.3504 12.76C72.9904 12.44 72.6971 12.06 72.4704 11.62C72.2437 11.1667 72.1304 10.62 72.1304 9.98C72.1304 9.34 72.2504 8.76667 72.4904 8.26C72.7304 7.74 73.0704 7.3 73.5104 6.94C73.9504 6.58 74.4837 6.30667 75.1104 6.12C75.7371 5.92 76.4437 5.82 77.2304 5.82C78.1637 5.82 78.9704 5.92 79.6504 6.12C80.3304 6.32 80.8904 6.54 81.3304 6.78L80.4304 9.24C80.0437 9.04 79.6104 8.86667 79.1304 8.72C78.6637 8.56 78.0971 8.48 77.4304 8.48C76.6837 8.48 76.1437 8.58667 75.8104 8.8C75.4904 9 75.3304 9.31333 75.3304 9.74C75.3304 9.99333 75.3904 10.2067 75.5104 10.38C75.6304 10.5533 75.7971 10.7133 76.0104 10.86C76.2371 10.9933 76.4904 11.12 76.7704 11.24C77.0637 11.3467 77.3837 11.46 77.7304 11.58C78.4504 11.8467 79.0771 12.1133 79.6104 12.38C80.1437 12.6333 80.5837 12.9333 80.9304 13.28C81.2904 13.6267 81.5571 14.0333 81.7304 14.5C81.9037 14.9667 81.9904 15.5333 81.9904 16.2C81.9904 17.4933 81.5371 18.5 80.6304 19.22C79.7237 19.9267 78.3571 20.28 76.5304 20.28C75.9171 20.28 75.3637 20.24 74.8704 20.16C74.3771 20.0933 73.9371 20.0067 73.5504 19.9C73.1771 19.7933 72.8504 19.68 72.5704 19.56C72.3037 19.44 72.0771 19.3267 71.8904 19.22L72.7704 16.74C73.1837 16.9667 73.6904 17.1733 74.2904 17.36C74.9037 17.5333 75.6504 17.62 76.5304 17.62Z" fill="white"/>
</svg>
