<svg width="128" height="128" viewBox="0 0 128 128" fill="none" xmlns="http://www.w3.org/2000/svg">
<path d="M27.854 116.354L19.811 26.1429H108.189L100.138 116.34L63.946 126.373L27.854 116.354Z" fill="#E44D26"/>
<path d="M64 118.704L93.244 110.596L100.125 33.52H64V118.704Z" fill="#F16529"/>
<path d="M64 66.978H49.359L48.349 55.647H64V44.583H36.257L36.521 47.552L39.241 78.041H64V66.978ZM64 95.711L63.951 95.724L51.63 92.396L50.842 83.573H39.735L41.285 100.945L63.949 107.237L64 107.222V95.711Z" fill="#EBEBEB"/>
<path d="M63.962 66.978V78.041H77.586L76.302 92.39L63.962 95.721V107.231L86.644 100.945L86.81 99.075L89.41 69.948L89.68 66.978H86.698H63.962ZM63.962 44.583V55.647H90.687L90.908 53.16L91.413 47.552L91.678 44.583H63.962Z" fill="white"/>
<path d="M45.962 5.14H49.082V19H45.962V13.12H40.722V19H37.602V5.14H40.722V10.44H45.962V5.14ZM62.5695 5.14V7.8H58.3895V19H55.2695V7.8H51.0895V5.14H62.5695ZM68.0593 5.14C68.2993 5.58 68.5726 6.12667 68.8793 6.78C69.1993 7.42 69.526 8.12 69.8593 8.88C70.206 9.62667 70.546 10.3933 70.8793 11.18C71.2126 11.9667 71.526 12.7067 71.8193 13.4C72.1126 12.7067 72.426 11.9667 72.7593 11.18C73.0926 10.3933 73.426 9.62667 73.7593 8.88C74.106 8.12 74.4326 7.42 74.7393 6.78C75.0593 6.12667 75.3393 5.58 75.5793 5.14H78.4193C78.5526 6.06 78.6726 7.09333 78.7793 8.24C78.8993 9.37333 78.9993 10.56 79.0793 11.8C79.1726 13.0267 79.2526 14.26 79.3193 15.5C79.3993 16.74 79.466 17.9067 79.5193 19H76.4793C76.4393 17.6533 76.386 16.1867 76.3193 14.6C76.2526 13.0133 76.1526 11.4133 76.0193 9.8C75.7793 10.36 75.5126 10.98 75.2193 11.66C74.926 12.34 74.6326 13.02 74.3393 13.7C74.0593 14.38 73.786 15.0333 73.5193 15.66C73.2526 16.2733 73.026 16.8 72.8393 17.24H70.6593C70.4726 16.8 70.246 16.2733 69.9793 15.66C69.7126 15.0333 69.4326 14.38 69.1393 13.7C68.8593 13.02 68.5726 12.34 68.2793 11.66C67.986 10.98 67.7193 10.36 67.4793 9.8C67.346 11.4133 67.246 13.0133 67.1793 14.6C67.1126 16.1867 67.0593 17.6533 67.0193 19H63.9793C64.0326 17.9067 64.0926 16.74 64.1593 15.5C64.2393 14.26 64.3193 13.0267 64.3993 11.8C64.4926 10.56 64.5926 9.37333 64.6993 8.24C64.8193 7.09333 64.946 6.06 65.0793 5.14H68.0593ZM91.5885 16.32V19H82.3285V5.14H85.4485V16.32H91.5885Z" fill="white"/>
</svg>
