<svg width="102" height="124" viewBox="0 0 102 124" fill="none" xmlns="http://www.w3.org/2000/svg">
<path d="M1.12201 23.1219H100.878V122.879H1.12201V23.1219Z" fill="#F0DB4F"/>
<path d="M92.714 99.0865C91.9833 94.5356 89.0157 90.7129 80.2254 87.1485C77.1717 85.7452 73.7675 84.7404 72.7531 82.4262C72.3929 81.0795 72.3451 80.3209 72.573 79.5057C73.2272 76.8601 76.3852 76.0353 78.8882 76.7939C80.5003 77.3342 82.0263 78.5765 82.9467 80.5584C87.2514 77.7709 87.2426 77.7892 90.2485 75.8735C89.148 74.1674 88.5607 73.3801 87.8403 72.6502C85.2513 69.7583 81.7235 68.269 76.0816 68.3829L73.1427 68.763C70.3266 69.4746 67.6427 70.9528 66.0689 72.9347C61.3466 78.2929 62.6933 87.6705 68.4396 91.5297C74.1006 95.7787 82.4168 96.7453 83.479 100.719C84.5126 105.583 79.9042 107.157 75.3238 106.598C71.9482 105.896 70.0708 104.18 68.0411 101.06C64.3054 103.222 64.3054 103.222 60.4645 105.431C61.3753 107.423 62.3323 108.324 63.8591 110.049C71.0852 117.379 89.1679 117.019 92.4112 105.924C92.5427 105.544 93.416 103.003 92.714 99.0865V99.0865ZM55.3525 68.9702H46.0219L45.9836 93.0932C45.9836 98.2235 46.249 102.927 45.4147 104.368C44.0496 107.203 40.5123 106.852 38.9002 106.302C37.2595 105.496 36.4251 104.349 35.4585 102.728C35.1932 102.263 34.9939 101.903 34.927 101.875L27.3408 106.521C28.6022 109.11 30.4605 111.357 32.8408 112.817C36.3964 114.951 41.1753 115.605 46.1733 114.457C49.4261 113.51 52.2327 111.547 53.7022 108.56C55.8266 104.643 55.3708 99.9025 55.3517 94.6591C55.3995 86.1046 55.3525 77.5518 55.3525 68.9702V68.9702Z" fill="#323330"/>
<path d="M11.6175 14.34C11.6175 15.02 11.5375 15.66 11.3775 16.26C11.2308 16.86 10.9642 17.3867 10.5775 17.84C10.2042 18.28 9.69083 18.6333 9.0375 18.9C8.3975 19.1533 7.58417 19.28 6.5975 19.28C5.69083 19.28 4.91083 19.1733 4.2575 18.96C3.60417 18.7333 3.06417 18.4733 2.6375 18.18L3.6775 15.76C4.06417 15.9867 4.4775 16.1867 4.9175 16.36C5.3575 16.5333 5.8375 16.62 6.3575 16.62C7.1175 16.62 7.66417 16.4333 7.9975 16.06C8.33083 15.6867 8.4975 15.06 8.4975 14.18V5.14H11.6175V14.34ZM18.4434 16.92C18.7368 16.92 19.0168 16.9133 19.2834 16.9C19.5501 16.8867 19.7634 16.8667 19.9234 16.84V14.58C19.8034 14.5533 19.6234 14.5267 19.3834 14.5C19.1434 14.4733 18.9234 14.46 18.7234 14.46C18.4434 14.46 18.1768 14.48 17.9234 14.52C17.6834 14.5467 17.4701 14.6067 17.2834 14.7C17.0968 14.7933 16.9501 14.92 16.8434 15.08C16.7368 15.24 16.6834 15.44 16.6834 15.68C16.6834 16.1467 16.8368 16.4733 17.1434 16.66C17.4634 16.8333 17.8968 16.92 18.4434 16.92ZM18.2034 8.2C19.0834 8.2 19.8168 8.3 20.4034 8.5C20.9901 8.7 21.4568 8.98667 21.8034 9.36C22.1634 9.73333 22.4168 10.1867 22.5634 10.72C22.7101 11.2533 22.7834 11.8467 22.7834 12.5V18.7C22.3568 18.7933 21.7634 18.9 21.0034 19.02C20.2434 19.1533 19.3234 19.22 18.2434 19.22C17.5634 19.22 16.9434 19.16 16.3834 19.04C15.8368 18.92 15.3634 18.7267 14.9634 18.46C14.5634 18.18 14.2568 17.82 14.0434 17.38C13.8301 16.94 13.7234 16.4 13.7234 15.76C13.7234 15.1467 13.8434 14.6267 14.0834 14.2C14.3368 13.7733 14.6701 13.4333 15.0834 13.18C15.4968 12.9267 15.9701 12.7467 16.5034 12.64C17.0368 12.52 17.5901 12.46 18.1634 12.46C18.5501 12.46 18.8901 12.48 19.1834 12.52C19.4901 12.5467 19.7368 12.5867 19.9234 12.64V12.36C19.9234 11.8533 19.7701 11.4467 19.4634 11.14C19.1568 10.8333 18.6234 10.68 17.8634 10.68C17.3568 10.68 16.8568 10.72 16.3634 10.8C15.8701 10.8667 15.4434 10.9667 15.0834 11.1L14.7034 8.7C14.8768 8.64667 15.0901 8.59333 15.3434 8.54C15.6101 8.47333 15.8968 8.42 16.2034 8.38C16.5101 8.32667 16.8301 8.28667 17.1634 8.26C17.5101 8.22 17.8568 8.2 18.2034 8.2ZM28.0842 19C27.4042 17.6667 26.7109 16.1067 26.0042 14.32C25.3109 12.5333 24.6509 10.5867 24.0242 8.48H27.1842C27.3176 9 27.4709 9.56667 27.6442 10.18C27.8309 10.78 28.0176 11.3933 28.2042 12.02C28.4042 12.6333 28.5976 13.2333 28.7842 13.82C28.9842 14.4067 29.1776 14.94 29.3642 15.42C29.5376 14.94 29.7242 14.4067 29.9242 13.82C30.1242 13.2333 30.3176 12.6333 30.5042 12.02C30.7042 11.3933 30.8909 10.78 31.0642 10.18C31.2509 9.56667 31.4109 9 31.5442 8.48H34.6242C33.9976 10.5867 33.3309 12.5333 32.6242 14.32C31.9309 16.1067 31.2442 17.6667 30.5642 19H28.0842ZM40.045 16.92C40.3383 16.92 40.6183 16.9133 40.885 16.9C41.1517 16.8867 41.365 16.8667 41.525 16.84V14.58C41.405 14.5533 41.225 14.5267 40.985 14.5C40.745 14.4733 40.525 14.46 40.325 14.46C40.045 14.46 39.7783 14.48 39.525 14.52C39.285 14.5467 39.0717 14.6067 38.885 14.7C38.6983 14.7933 38.5517 14.92 38.445 15.08C38.3383 15.24 38.285 15.44 38.285 15.68C38.285 16.1467 38.4383 16.4733 38.745 16.66C39.065 16.8333 39.4983 16.92 40.045 16.92ZM39.805 8.2C40.685 8.2 41.4183 8.3 42.005 8.5C42.5917 8.7 43.0583 8.98667 43.405 9.36C43.765 9.73333 44.0183 10.1867 44.165 10.72C44.3117 11.2533 44.385 11.8467 44.385 12.5V18.7C43.9583 18.7933 43.365 18.9 42.605 19.02C41.845 19.1533 40.925 19.22 39.845 19.22C39.165 19.22 38.545 19.16 37.985 19.04C37.4383 18.92 36.965 18.7267 36.565 18.46C36.165 18.18 35.8583 17.82 35.645 17.38C35.4317 16.94 35.325 16.4 35.325 15.76C35.325 15.1467 35.445 14.6267 35.685 14.2C35.9383 13.7733 36.2717 13.4333 36.685 13.18C37.0983 12.9267 37.5717 12.7467 38.105 12.64C38.6383 12.52 39.1917 12.46 39.765 12.46C40.1517 12.46 40.4917 12.48 40.785 12.52C41.0917 12.5467 41.3383 12.5867 41.525 12.64V12.36C41.525 11.8533 41.3717 11.4467 41.065 11.14C40.7583 10.8333 40.225 10.68 39.465 10.68C38.9583 10.68 38.4583 10.72 37.965 10.8C37.4717 10.8667 37.045 10.9667 36.685 11.1L36.305 8.7C36.4783 8.64667 36.6917 8.59333 36.945 8.54C37.2117 8.47333 37.4983 8.42 37.805 8.38C38.1117 8.32667 38.4317 8.28667 38.765 8.26C39.1117 8.22 39.4583 8.2 39.805 8.2ZM50.0997 16.86C50.6464 16.86 51.033 16.8067 51.2597 16.7C51.4864 16.5933 51.5997 16.3867 51.5997 16.08C51.5997 15.84 51.453 15.6333 51.1597 15.46C50.8664 15.2733 50.4197 15.0667 49.8197 14.84C49.353 14.6667 48.9264 14.4867 48.5397 14.3C48.1664 14.1133 47.8464 13.8933 47.5797 13.64C47.313 13.3733 47.1064 13.06 46.9597 12.7C46.813 12.34 46.7397 11.9067 46.7397 11.4C46.7397 10.4133 47.1064 9.63333 47.8397 9.06C48.573 8.48667 49.5797 8.2 50.8597 8.2C51.4997 8.2 52.113 8.26 52.6997 8.38C53.2864 8.48667 53.753 8.60667 54.0997 8.74L53.5797 11.06C53.233 10.94 52.853 10.8333 52.4397 10.74C52.0397 10.6467 51.5864 10.6 51.0797 10.6C50.1464 10.6 49.6797 10.86 49.6797 11.38C49.6797 11.5 49.6997 11.6067 49.7397 11.7C49.7797 11.7933 49.8597 11.8867 49.9797 11.98C50.0997 12.06 50.2597 12.1533 50.4597 12.26C50.673 12.3533 50.9397 12.46 51.2597 12.58C51.913 12.82 52.453 13.06 52.8797 13.3C53.3064 13.5267 53.6397 13.78 53.8797 14.06C54.133 14.3267 54.3064 14.6267 54.3997 14.96C54.5064 15.2933 54.5597 15.68 54.5597 16.12C54.5597 17.16 54.1664 17.9467 53.3797 18.48C52.6064 19.0133 51.5064 19.28 50.0797 19.28C49.1464 19.28 48.3664 19.2 47.7397 19.04C47.1264 18.88 46.6997 18.7467 46.4597 18.64L46.9597 16.22C47.4664 16.42 47.9864 16.58 48.5197 16.7C49.053 16.8067 49.5797 16.86 50.0997 16.86ZM56.2867 13.74C56.2867 12.98 56.4067 12.2667 56.6467 11.6C56.9001 10.92 57.2601 10.3333 57.7267 9.84C58.1934 9.33333 58.7601 8.93333 59.4267 8.64C60.0934 8.34667 60.8534 8.2 61.7067 8.2C62.2667 8.2 62.7801 8.25333 63.2467 8.36C63.7134 8.45333 64.1667 8.59333 64.6067 8.78L63.9867 11.16C63.7067 11.0533 63.4001 10.96 63.0667 10.88C62.7334 10.8 62.3601 10.76 61.9467 10.76C61.0667 10.76 60.4067 11.0333 59.9667 11.58C59.5401 12.1267 59.3267 12.8467 59.3267 13.74C59.3267 14.6867 59.5267 15.42 59.9267 15.94C60.3401 16.46 61.0534 16.72 62.0667 16.72C62.4267 16.72 62.8134 16.6867 63.2267 16.62C63.6401 16.5533 64.0201 16.4467 64.3667 16.3L64.7867 18.74C64.4401 18.8867 64.0067 19.0133 63.4867 19.12C62.9667 19.2267 62.3934 19.28 61.7667 19.28C60.8067 19.28 59.9801 19.14 59.2867 18.86C58.5934 18.5667 58.0201 18.1733 57.5667 17.68C57.1267 17.1867 56.8001 16.6067 56.5867 15.94C56.3867 15.26 56.2867 14.5267 56.2867 13.74ZM73.1267 11.12C72.8601 11.0533 72.5467 10.9867 72.1867 10.92C71.8267 10.84 71.4401 10.8 71.0267 10.8C70.8401 10.8 70.6134 10.82 70.3467 10.86C70.0934 10.8867 69.9001 10.92 69.7667 10.96V19H66.7867V9.04C67.3201 8.85333 67.9467 8.68 68.6667 8.52C69.4001 8.34667 70.2134 8.26 71.1067 8.26C71.2667 8.26 71.4601 8.27333 71.6867 8.3C71.9134 8.31333 72.1401 8.34 72.3667 8.38C72.5934 8.40667 72.8201 8.44667 73.0467 8.5C73.2734 8.54 73.4667 8.59333 73.6267 8.66L73.1267 11.12ZM78.2042 19H75.2242V8.48H78.2042V19ZM78.4842 5.44C78.4842 5.98667 78.3042 6.42 77.9442 6.74C77.5976 7.04667 77.1842 7.2 76.7042 7.2C76.2242 7.2 75.8042 7.04667 75.4442 6.74C75.0976 6.42 74.9242 5.98667 74.9242 5.44C74.9242 4.89333 75.0976 4.46667 75.4442 4.16C75.8042 3.84 76.2242 3.68 76.7042 3.68C77.1842 3.68 77.5976 3.84 77.9442 4.16C78.3042 4.46667 78.4842 4.89333 78.4842 5.44ZM87.7455 13.82C87.7455 12.9 87.5388 12.1667 87.1255 11.62C86.7121 11.06 86.0988 10.78 85.2855 10.78C85.0188 10.78 84.7721 10.7933 84.5455 10.82C84.3188 10.8333 84.1321 10.8533 83.9855 10.88V16.26C84.1721 16.38 84.4121 16.48 84.7055 16.56C85.0121 16.64 85.3188 16.68 85.6255 16.68C87.0388 16.68 87.7455 15.7267 87.7455 13.82ZM90.7855 13.74C90.7855 14.5533 90.6855 15.2933 90.4855 15.96C90.2855 16.6267 89.9921 17.2 89.6055 17.68C89.2188 18.16 88.7388 18.5333 88.1655 18.8C87.5921 19.0667 86.9321 19.2 86.1855 19.2C85.7721 19.2 85.3855 19.16 85.0255 19.08C84.6655 19 84.3188 18.8867 83.9855 18.74V22.7H81.0055V8.84C81.2721 8.76 81.5788 8.68667 81.9255 8.62C82.2721 8.54 82.6321 8.47333 83.0055 8.42C83.3921 8.36667 83.7788 8.32667 84.1655 8.3C84.5655 8.26 84.9455 8.24 85.3055 8.24C86.1721 8.24 86.9455 8.37333 87.6255 8.64C88.3055 8.89333 88.8788 9.26 89.3455 9.74C89.8121 10.2067 90.1655 10.78 90.4055 11.46C90.6588 12.14 90.7855 12.9 90.7855 13.74ZM92.9758 5.86L95.9558 5.38V8.48H99.5358V10.96H95.9558V14.66C95.9558 15.2867 96.0624 15.7867 96.2758 16.16C96.5024 16.5333 96.9491 16.72 97.6158 16.72C97.9358 16.72 98.2624 16.6933 98.5958 16.64C98.9424 16.5733 99.2558 16.4867 99.5358 16.38L99.9558 18.7C99.5958 18.8467 99.1958 18.9733 98.7558 19.08C98.3158 19.1867 97.7758 19.24 97.1358 19.24C96.3224 19.24 95.6491 19.1333 95.1158 18.92C94.5824 18.6933 94.1558 18.3867 93.8358 18C93.5158 17.6 93.2891 17.12 93.1558 16.56C93.0358 16 92.9758 15.38 92.9758 14.7V5.86Z" fill="white"/>
</svg>
