<svg width="512" height="512" viewBox="0 0 512 512" fill="none" xmlns="http://www.w3.org/2000/svg">
<g clip-path="url(#clip0_61_4)">
<path d="M164.9 24.6C157.2 6.00003 136.9 -3.89997 117.5 1.40003L29.5 25.4C12.1 30.2 0 46 0 64C0 311.4 200.6 512 448 512C466 512 481.8 499.9 486.6 482.5L510.6 394.5C515.9 375.1 506 354.8 487.4 347.1L391.4 307.1C375.1 300.3 356.2 305 345.1 318.7L304.7 368C234.3 334.7 177.3 277.7 144 207.3L193.3 167C207 155.8 211.7 137 204.9 120.7L164.9 24.7V24.6Z" fill="white"/>
</g>
<defs>
<clipPath id="clip0_61_4">
<rect width="512" height="512" fill="white"/>
</clipPath>
</defs>
</svg>
