<svg width="126" height="124" viewBox="0 0 126 124" fill="none" xmlns="http://www.w3.org/2000/svg">
<path d="M115.948 95.8071C109.085 95.6201 103.844 96.2591 99.363 98.1481C98.09 98.6851 96.058 98.7001 95.85 100.295C96.55 101.028 96.659 102.124 97.215 103.026C98.285 104.756 100.091 107.078 101.703 108.294C103.465 109.624 105.28 111.045 107.168 112.196C110.526 114.243 114.275 115.413 117.508 117.464C119.414 118.674 121.307 120.197 123.166 121.561C124.086 122.236 124.703 123.285 125.898 123.708V123.514C125.27 122.714 125.108 121.616 124.532 120.781L121.995 118.244C119.515 114.952 116.366 112.06 113.019 109.659C110.35 107.743 104.377 105.155 103.264 102.05L103.069 101.855C104.961 101.641 107.176 100.957 108.923 100.488C111.857 99.7021 114.479 99.9051 117.508 99.1231L121.605 97.9521V97.1721C120.074 95.6011 118.982 93.5211 117.313 92.0991C112.943 88.3791 108.175 84.6621 103.265 81.5621C100.541 79.8441 97.176 78.7271 94.289 77.2701C93.318 76.7791 91.612 76.5241 90.971 75.7081C89.454 73.7761 88.629 71.3261 87.46 69.0751C85.011 64.3581 82.606 59.2071 80.436 54.2441C78.956 50.8601 77.989 47.5241 76.143 44.4881C67.283 29.9211 57.747 21.1301 42.974 12.4881C39.83 10.6501 36.045 9.92509 32.045 8.97509C29.9 8.84609 27.753 8.71509 25.607 8.58409C24.296 8.03809 22.934 6.43509 21.705 5.65709C16.811 2.56509 4.25699 -4.15991 0.632993 4.68209C-1.65601 10.2631 4.05399 15.7071 6.09499 18.5361C7.52899 20.5181 9.36399 22.7431 10.388 24.9741C11.062 26.4411 11.178 27.9121 11.755 29.4631C13.172 33.2851 14.407 37.4431 16.242 40.9741C17.169 42.7621 18.191 44.6441 19.364 46.2421C20.082 47.2231 21.315 47.6551 21.509 49.1691C20.305 50.8551 20.236 53.4731 19.559 55.6091C16.509 65.2241 17.66 77.1761 22.096 84.2921C23.456 86.4781 26.663 91.1631 31.071 89.3651C34.927 87.7951 34.066 82.9271 35.169 78.6331C35.418 77.6601 35.265 76.9441 35.754 76.2921V76.4871L39.267 83.5111C41.867 87.6981 46.479 92.0731 50.389 95.0251C52.416 96.5561 54.012 99.2021 56.633 100.098V99.9021H56.438C55.93 99.1111 55.135 98.7831 54.487 98.1471C52.96 96.6501 51.262 94.7891 50 93.0741C46.444 88.2471 43.302 82.9641 40.439 77.4651C39.071 74.8381 37.882 71.9421 36.73 69.2691C36.286 68.2391 36.292 66.6801 35.366 66.1471C34.103 68.1051 32.244 69.6891 31.268 72.0011C29.707 75.6971 29.506 80.2051 28.927 84.8791C28.585 85.0011 28.737 84.9171 28.536 85.0731C25.818 84.4181 24.864 81.6211 23.853 79.2201C21.299 73.1501 20.824 63.3781 23.072 56.3911C23.654 54.5821 26.282 48.8901 25.218 47.2191C24.71 45.5531 23.034 44.5891 22.097 43.3161C20.936 41.7421 19.778 39.6701 18.973 37.8521C16.883 33.1211 15.907 27.8081 13.706 23.0241C12.653 20.7371 10.874 18.4221 9.41299 16.3901C7.79599 14.1371 5.98399 12.4781 4.72999 9.75509C4.28399 8.78709 3.67899 7.23709 4.33899 6.24209C4.54899 5.57109 4.84699 5.29109 5.50999 5.07209C6.64199 4.19909 9.79399 5.36209 10.972 5.85109C14.101 7.15109 16.713 8.38909 19.364 10.1451C20.635 10.9891 21.923 12.6201 23.461 13.0721H25.217C27.964 13.7031 31.041 13.2671 33.608 14.0471C38.144 15.4251 42.209 17.5701 45.9 19.9011C57.146 27.0031 66.342 37.1111 72.632 49.1701C73.644 51.1121 74.082 52.9641 74.973 55.0241C76.771 59.1771 79.036 63.4501 80.825 67.5121C82.611 71.5641 84.351 75.6531 86.875 79.0251C88.202 80.7971 93.326 81.7481 95.656 82.7331C97.288 83.4221 99.963 84.1421 101.51 85.0731C104.463 86.8551 107.325 88.9761 110.096 90.9281C111.479 91.9031 115.736 94.0441 115.948 95.8071V95.8071ZM28.729 21.4661C27.298 21.4391 26.286 21.6221 25.216 21.8551V22.0501H25.411C26.094 23.4521 27.299 24.3561 28.142 25.5631C28.792 26.9301 29.443 28.2951 30.094 29.6601L30.288 29.4671C31.497 28.6141 32.05 27.2531 32.043 25.1731C31.559 24.6641 31.488 24.0261 31.068 23.4181C30.512 22.6071 29.433 22.1461 28.729 21.4661Z" fill="#00618A"/>
</svg>
