<svg width="30" height="30" viewBox="0 0 30 30" fill="none" xmlns="http://www.w3.org/2000/svg">
<path fill-rule="evenodd" clip-rule="evenodd" d="M21.8728 17.9776C21.4996 17.7917 19.6646 16.8933 19.3225 16.7692C18.9804 16.6452 18.7316 16.5833 18.4827 16.9551C18.234 17.3269 17.5186 18.1637 17.3009 18.4116C17.0832 18.6594 16.8655 18.6905 16.4923 18.5046C16.1191 18.3186 14.9164 17.9264 13.4909 16.6609C12.3813 15.6759 11.6323 14.4596 11.4146 14.0877C11.1969 13.7158 11.3914 13.5149 11.5782 13.3296C11.7461 13.1631 11.9514 12.8958 12.138 12.6789C12.3246 12.462 12.3868 12.3069 12.5112 12.0592C12.6356 11.8113 12.5734 11.5944 12.4801 11.4085C12.3868 11.2226 11.6404 9.3942 11.3294 8.65041C11.0264 7.92619 10.7187 8.02433 10.4897 8.01273C10.2722 8.00207 10.0231 7.99969 9.77434 7.99969C9.52553 7.99969 9.12111 8.09265 8.7791 8.46449C8.43699 8.83644 7.47274 9.73509 7.47274 11.5632C7.47274 13.3916 8.8101 15.1579 8.99681 15.4058C9.18341 15.6537 11.6286 19.4055 15.3727 21.0145C16.2632 21.3972 16.9584 21.6257 17.5003 21.7969C18.3945 22.0797 19.2081 22.0398 19.8512 21.9441C20.5683 21.8375 22.0594 21.0455 22.3704 20.178C22.6814 19.3101 22.6814 18.5665 22.5881 18.4116C22.4948 18.2566 22.246 18.1637 21.8728 17.9776V17.9776ZM15.0628 27.2316H15.0577C12.83 27.2307 10.6449 26.6351 8.73874 25.5093L8.28533 25.2415L3.58642 26.4682L4.84069 21.9088L4.54545 21.4413C3.30267 19.474 2.64627 17.2003 2.64723 14.8656C2.64995 8.05321 8.21949 2.51076 15.0677 2.51076C18.3839 2.5119 21.5011 3.79876 23.8451 6.13437C26.1891 8.46977 27.4793 11.5742 27.478 14.8757C27.4752 21.6886 21.9058 27.2316 15.0628 27.2316V27.2316ZM25.6291 4.35973C22.809 1.54979 19.0585 0.00165576 15.0626 -5.58794e-07C6.8294 -5.58794e-07 0.128514 6.66832 0.125227 14.8647C0.124124 17.4849 0.811939 20.0422 2.11912 22.2967L0 30L7.91846 27.9327C10.1002 29.1171 12.5567 29.7413 15.0567 29.7422H15.0628C15.0633 29.7422 15.0624 29.7422 15.0629 29.7422C23.2952 29.7422 29.9967 23.0732 30 14.8766C30.0016 10.9045 28.4493 7.16956 25.6291 4.35973Z" fill="white"/>
</svg>
